<svg width="12" height="12" viewBox="0 0 12 12" fill="none" xmlns="http://www.w3.org/2000/svg">
<path fill-rule="evenodd" clip-rule="evenodd" d="M4.04878 6C4.04878 7.06667 4.92195 7.93455 6 7.93455C7.07317 7.93455 7.94634 7.06667 7.94634 6C7.94634 4.92848 7.07317 4.06061 6 4.06061C4.92195 4.06061 4.04878 4.92848 4.04878 6ZM8.86829 3.02303C9.72195 3.68242 10.4488 4.64727 10.9707 5.85455C11.0098 5.94667 11.0098 6.05333 10.9707 6.14061C9.92683 8.55515 8.06829 10 6 10H5.99512C3.93171 10 2.07317 8.55515 1.02927 6.14061C0.990244 6.05333 0.990244 5.94667 1.02927 5.85455C2.07317 3.44 3.93171 2 5.99512 2H6C7.03415 2 8.01463 2.35879 8.86829 3.02303ZM6.00059 7.20621C6.66888 7.20621 7.21522 6.66318 7.21522 5.99893C7.21522 5.32984 6.66888 4.78681 6.00059 4.78681C5.94205 4.78681 5.88351 4.79166 5.82985 4.80136C5.81034 5.33469 5.37132 5.76136 4.82985 5.76136H4.80546C4.79083 5.83893 4.78107 5.91651 4.78107 5.99893C4.78107 6.66318 5.32741 7.20621 6.00059 7.20621Z" fill="#8C8198"/>
</svg>
