<svg width="36" height="16" viewBox="0 0 36 16" fill="none" xmlns="http://www.w3.org/2000/svg">
<circle cx="8" cy="8" r="7.5" fill="#2B99FF" stroke="white"/>
<path d="M11.1814 10.6438C11.0071 11.0726 10.5905 11.353 10.1276 11.353H6.96367C6.33544 11.353 5.82617 10.8438 5.82617 10.2155V7.1966C5.82617 6.93435 5.91667 6.67424 6.09817 6.47081C6.17356 6.38631 6.25838 6.2928 6.35005 6.19175L6.35006 6.19174C6.71423 5.79028 7.18649 5.26966 7.60526 4.72095C7.75173 4.52904 7.94964 4.34568 8.18253 4.23349C8.41992 4.11912 8.70868 4.07346 8.99956 4.19486C9.59384 4.44288 9.78917 4.98291 9.80763 5.48389C9.81951 5.80638 9.76182 6.13886 9.6781 6.43044C9.89219 6.43648 10.1453 6.4483 10.3941 6.47428C10.6224 6.49812 10.8587 6.53491 11.0657 6.5941C11.2617 6.6501 11.4816 6.73952 11.6269 6.90054C12.2754 7.61919 12.082 8.36254 11.9918 8.64739L11.9881 8.65914L11.1814 10.6438Z" fill="white"/>
<path fill-rule="evenodd" clip-rule="evenodd" d="M4.80304 11.2778C4.56141 11.2778 4.36554 11.082 4.36554 10.8403V7.23827C4.36554 6.99664 4.56141 6.80076 4.80304 6.80076C5.04466 6.80076 5.24054 6.99664 5.24054 7.23827V10.8403C5.24054 11.082 5.04466 11.2778 4.80304 11.2778Z" fill="white"/>
<circle cx="18" cy="8" r="7.5" fill="#FFC32B" stroke="white"/>
<g clip-path="url(#clip0_4_364)">
<path d="M20.6826 6.14237C20.8482 6.97044 20.6494 7.70899 20.1305 8.36921C19.9097 8.66015 19.6999 8.96228 19.5012 9.27561C19.3577 9.49941 19.2804 9.75678 19.2473 10.0365C19.2362 10.1149 19.2031 10.1261 19.1479 10.1261C18.7615 10.1261 18.364 10.1261 17.9775 10.1261C17.5911 10.1261 17.2047 10.1261 16.8182 10.1261C16.7741 10.1261 16.7299 10.1372 16.7189 10.0589C16.6637 9.48822 16.3545 9.0518 16.0233 8.61539C15.8025 8.32445 15.5817 8.04469 15.4381 7.70899C15.2836 7.37329 15.2284 7.0152 15.2394 6.63474C15.2725 5.33668 16.1889 4.21767 17.4365 3.97149C18.9271 3.66935 20.3845 4.6429 20.6826 6.14237ZM19.1258 10.6632H16.8182C16.763 10.6632 16.7189 10.7079 16.7189 10.7639V11.066C16.7189 11.6255 17.1716 12.0843 17.7236 12.0843H18.1984C18.7504 12.0843 19.2031 11.6255 19.2031 11.066V10.7639C19.2252 10.6968 19.181 10.6632 19.1258 10.6632Z" fill="white"/>
</g>
<circle cx="28" cy="8" r="7.5" fill="#FA6969" stroke="white"/>
<g clip-path="url(#clip1_4_364)">
<path fill-rule="evenodd" clip-rule="evenodd" d="M29.5721 4.12067C29.8297 4.12067 30.087 4.15701 30.3315 4.23909C31.8387 4.72908 32.3818 6.38281 31.9281 7.8283C31.6709 8.56697 31.2503 9.24112 30.6994 9.79195C29.911 10.5555 29.0457 11.2334 28.1143 11.8173L28.0122 11.8789L27.9061 11.8132C26.9714 11.2334 26.1013 10.5555 25.3054 9.78787C24.7583 9.23703 24.3373 8.56697 24.0759 7.8283C23.6145 6.38281 24.1576 4.72908 25.6811 4.23051C25.9351 4.14293 26.2135 4.12067 26.481 4.12067C27.038 4.13747 27.5585 4.31261 28 4.65109C28.4536 4.30442 29.0045 4.11659 29.5721 4.12067Z" fill="white"/>
</g>
<defs>
<clipPath id="clip0_4_364">
<rect width="8.16667" height="8.16667" fill="white" transform="translate(13.9167 3.9165)"/>
</clipPath>
<clipPath id="clip1_4_364">
<rect width="8.16667" height="8.16667" fill="white" transform="translate(23.9167 3.9165)"/>
</clipPath>
</defs>
</svg>
