<svg width="44" height="44" viewBox="0 0 44 44" fill="none" xmlns="http://www.w3.org/2000/svg">
<path d="M27 14H20C19.4696 14 18.9609 14.2107 18.5858 14.5858C18.2107 14.9609 18 15.4696 18 16V30C18 30.5304 18.2107 31.0391 18.5858 31.4142C18.9609 31.7893 19.4696 32 20 32H34C34.5304 32 35.0391 31.7893 35.4142 31.4142C35.7893 31.0391 36 30.5304 36 30V23" stroke="#8667F2" stroke-width="1.5" stroke-linecap="round" stroke-linejoin="round"/>
<path d="M34.5 12.5C34.8978 12.1022 35.4374 11.8787 36 11.8787C36.5626 11.8787 37.1022 12.1022 37.5 12.5C37.8978 12.8978 38.1213 13.4374 38.1213 14C38.1213 14.5626 37.8978 15.1022 37.5 15.5L28 25L24 26L25 22L34.5 12.5Z" stroke="#8667F2" stroke-width="1.5" stroke-linecap="round" stroke-linejoin="round"/>
</svg>
