<svg width="16" height="16" viewBox="0 0 16 16" fill="none" xmlns="http://www.w3.org/2000/svg">
<path fill-rule="evenodd" clip-rule="evenodd" d="M13.6134 2.18056C13.8534 1.94064 14.2359 1.93923 14.485 2.17986C14.7271 2.4219 14.7271 2.81284 14.4857 3.05418L3.05325 14.486C2.93962 14.5996 2.77589 14.6667 2.61639 14.6667C2.46042 14.6667 2.30656 14.6032 2.18235 14.4881C1.93957 14.2362 1.93957 13.853 2.18023 13.6124L4.06459 11.7283H4.04554C3.10618 11.7283 2.42231 11.0649 2.29527 10.0347C2.15341 9.00438 2.18164 7.24021 2.29527 6.30167C2.42866 5.32785 3.14923 4.65817 4.04554 4.65817H5.26578L7.59476 2.75286C7.87777 2.51293 8.37886 2.28641 8.76631 2.28006C9.47207 2.28006 10.1214 2.77333 10.3543 3.56367C10.446 3.89604 10.482 4.227 10.5102 4.54526L10.566 4.99618C10.5752 5.06534 10.5836 5.13167 10.5907 5.20224L13.6134 2.18056ZM9.92057 9.15426C10.0158 9.06112 10.229 8.99408 10.325 9.01878C10.584 9.0844 10.6348 9.45629 10.6306 9.74844C10.6186 10.5967 10.5903 11.1866 10.5452 11.5514L10.5134 11.852L10.5129 11.8576C10.4827 12.16 10.4515 12.4729 10.3617 12.8068C10.1267 13.5957 9.49641 14.1081 8.78008 14.1081C8.75679 14.1081 8.7335 14.1081 8.7095 14.1074C8.31357 14.1074 7.88448 13.8702 7.64099 13.6635L6.77362 12.9924C6.44404 12.7475 6.54143 12.3566 6.72634 12.1301C6.86442 11.9614 8.52403 10.4379 9.39569 9.63773C9.69129 9.36638 9.89627 9.17821 9.92057 9.15426Z" fill="#CCC7D1"/>
</svg>
