<svg width="16" height="16" viewBox="0 0 16 16" fill="none" xmlns="http://www.w3.org/2000/svg">
<circle cx="8" cy="8" r="7.5" fill="white" stroke="#A28AF5"/>
<g clip-path="url(#clip0_3_2549)">
<path fill-rule="evenodd" clip-rule="evenodd" d="M9.57205 4.12067C9.82971 4.12067 10.087 4.15701 10.3315 4.23909C11.8387 4.72908 12.3818 6.38281 11.9281 7.8283C11.6709 8.56697 11.2503 9.24112 10.6994 9.79195C9.91096 10.5555 9.04572 11.2334 8.11432 11.8173L8.01223 11.8789L7.90607 11.8132C6.9714 11.2334 6.10125 10.5555 5.30542 9.78787C4.75826 9.23703 4.33727 8.56697 4.07594 7.8283C3.61453 6.38281 4.15761 4.72908 5.68108 4.23051C5.93508 4.14293 6.21348 4.12067 6.481 4.12067C7.03804 4.13747 7.55848 4.31261 7.99998 4.65109C8.45364 4.30442 9.00447 4.11659 9.57205 4.12067Z" fill="#FA6969"/>
</g>
<defs>
<clipPath id="clip0_3_2549">
<rect width="8.16667" height="8.16667" fill="white" transform="translate(3.91669 3.9165)"/>
</clipPath>
</defs>
</svg>
