<svg width="14" height="14" viewBox="0 0 14 14" fill="none" xmlns="http://www.w3.org/2000/svg">
<path fill-rule="evenodd" clip-rule="evenodd" d="M4.7236 7.00016C4.7236 8.24461 5.7423 9.25713 7.00002 9.25713C8.25205 9.25713 9.27075 8.24461 9.27075 7.00016C9.27075 5.75006 8.25205 4.73754 7.00002 4.73754C5.7423 4.73754 4.7236 5.75006 4.7236 7.00016ZM10.3464 3.52703C11.3423 4.29632 12.1903 5.42198 12.7992 6.83046C12.8447 6.93794 12.8447 7.06238 12.7992 7.1642C11.5813 9.98117 9.41303 11.6668 7.00002 11.6668H6.99433C4.58701 11.6668 2.41872 9.98117 1.20083 7.1642C1.1553 7.06238 1.1553 6.93794 1.20083 6.83046C2.41872 4.0135 4.58701 2.3335 6.99433 2.3335H7.00002C8.20652 2.3335 9.35043 2.75208 10.3464 3.52703ZM7.0007 8.4074C7.78038 8.4074 8.41778 7.77387 8.41778 6.99892C8.41778 6.21831 7.78038 5.58478 7.0007 5.58478C6.93241 5.58478 6.86412 5.59043 6.80152 5.60175C6.77875 6.22397 6.26656 6.72175 5.63485 6.72175H5.60639C5.58932 6.81225 5.57794 6.90276 5.57794 6.99892C5.57794 7.77387 6.21534 8.4074 7.0007 8.4074Z" fill="white"/>
</svg>
