<svg width="26" height="16" viewBox="0 0 26 16" fill="none" xmlns="http://www.w3.org/2000/svg">
<circle cx="8" cy="8" r="7.5" fill="#2B99FF" stroke="white"/>
<path d="M11.1814 10.6438C11.0071 11.0726 10.5905 11.353 10.1276 11.353H6.96367C6.33544 11.353 5.82617 10.8438 5.82617 10.2155V7.1966C5.82617 6.93435 5.91667 6.67424 6.09817 6.47081C6.17356 6.38631 6.25838 6.2928 6.35005 6.19175L6.35006 6.19174C6.71423 5.79028 7.18649 5.26966 7.60526 4.72095C7.75173 4.52904 7.94964 4.34568 8.18253 4.23349C8.41992 4.11912 8.70868 4.07346 8.99956 4.19486C9.59384 4.44288 9.78917 4.98291 9.80763 5.48389C9.81951 5.80638 9.76182 6.13886 9.6781 6.43044C9.89219 6.43648 10.1453 6.4483 10.3941 6.47428C10.6224 6.49812 10.8587 6.53491 11.0657 6.5941C11.2617 6.6501 11.4816 6.73952 11.6269 6.90054C12.2754 7.61919 12.082 8.36254 11.9918 8.64739L11.9881 8.65914L11.1814 10.6438Z" fill="white"/>
<path fill-rule="evenodd" clip-rule="evenodd" d="M4.80304 11.2778C4.56141 11.2778 4.36554 11.082 4.36554 10.8403V7.23827C4.36554 6.99664 4.56141 6.80076 4.80304 6.80076C5.04466 6.80076 5.24054 6.99664 5.24054 7.23827V10.8403C5.24054 11.082 5.04466 11.2778 4.80304 11.2778Z" fill="white"/>
<circle cx="17.9999" cy="8" r="7.5" fill="#FA6969" stroke="white"/>
<g clip-path="url(#clip0_3_2573)">
<path fill-rule="evenodd" clip-rule="evenodd" d="M19.572 4.12067C19.8296 4.12067 20.0869 4.15701 20.3315 4.23909C21.8386 4.72908 22.3817 6.38281 21.928 7.8283C21.6708 8.56697 21.2502 9.24112 20.6994 9.79195C19.9109 10.5555 19.0457 11.2334 18.1143 11.8173L18.0122 11.8789L17.906 11.8132C16.9713 11.2334 16.1012 10.5555 15.3054 9.78787C14.7582 9.23703 14.3372 8.56697 14.0759 7.8283C13.6145 6.38281 14.1575 4.72908 15.681 4.23051C15.935 4.14293 16.2134 4.12067 16.4809 4.12067C17.038 4.13747 17.5584 4.31261 17.9999 4.65109C18.4536 4.30442 19.0044 4.11659 19.572 4.12067Z" fill="white"/>
</g>
<defs>
<clipPath id="clip0_3_2573">
<rect width="8.16667" height="8.16667" fill="white" transform="translate(13.9166 3.9165)"/>
</clipPath>
</defs>
</svg>
