<svg width="271" height="40" viewBox="0 0 271 40" fill="none" xmlns="http://www.w3.org/2000/svg">
<g clip-path="url(#clip0_3_2505)">
<rect x="-6.10352e-05" width="40" height="40" rx="20" fill="white"/>
<path d="M13.9999 12.8317C13.9999 12.0405 14.8751 11.5627 15.5406 11.9905L26.6914 19.1588C27.3037 19.5525 27.3037 20.4475 26.6914 20.8412L15.5406 28.0095C14.8751 28.4373 13.9999 27.9595 13.9999 27.1683V12.8317Z" fill="#A28AF5"/>
<rect x="51.9999" y="3" width="2" height="34" rx="1" fill="white"/>
<rect x="82" y="3" width="2" height="34" rx="1" fill="white"/>
<rect x="160" y="3" width="2" height="34" rx="1" fill="white"/>
<rect x="112" y="3" width="2" height="34" rx="1" fill="white"/>
<rect x="190" y="3" width="2" height="34" rx="1" fill="white"/>
<rect width="2" height="34" rx="1" transform="matrix(-1 0 0 1 252 3)" fill="white"/>
<rect width="2" height="34" rx="1" transform="matrix(-1 0 0 1 120 3)" fill="white"/>
<rect width="2" height="34" rx="1" transform="matrix(-1 0 0 1 198 3)" fill="white"/>
<rect x="244" y="3" width="2" height="34" rx="1" fill="white"/>
<rect x="57.9999" y="13" width="2" height="14" rx="1" fill="white"/>
<rect x="88" y="13" width="2" height="14" rx="1" fill="white"/>
<rect x="166" y="13" width="2" height="14" rx="1" fill="white"/>
<rect width="2" height="14" rx="1" transform="matrix(-1 0 0 1 144 13)" fill="white"/>
<rect width="2" height="14" rx="1" transform="matrix(-1 0 0 1 222 13)" fill="white"/>
<rect x="69.9999" y="13" width="2" height="14" rx="1" fill="white"/>
<rect x="148" y="13" width="2" height="14" rx="1" fill="white"/>
<rect x="99.9999" y="13" width="2" height="14" rx="1" fill="white"/>
<rect x="178" y="13" width="2" height="14" rx="1" fill="white"/>
<rect width="2" height="14" rx="1" transform="matrix(-1 0 0 1 132 13)" fill="white"/>
<rect width="2" height="14" rx="1" transform="matrix(-1 0 0 1 210 13)" fill="white"/>
<rect x="232" y="13" width="2" height="14" rx="1" fill="white"/>
<rect width="2" height="14" rx="1" transform="matrix(-1 0 0 1 264 13)" fill="white"/>
<rect width="2" height="14" rx="1" transform="matrix(-1 0 0 1 270 13)" fill="white"/>
<rect x="63.9999" y="8" width="2" height="24" rx="1" fill="white"/>
<rect x="94" y="8" width="2" height="24" rx="1" fill="white"/>
<rect x="172" y="8" width="2" height="24" rx="1" fill="white"/>
<rect width="2" height="24" rx="1" transform="matrix(-1 0 0 1 138 8)" fill="white"/>
<rect width="2" height="24" rx="1" transform="matrix(-1 0 0 1 216 8)" fill="white"/>
<rect x="226" y="8" width="2" height="24" rx="1" fill="white"/>
<rect x="75.9999" y="8" width="2" height="24" rx="1" fill="white"/>
<rect x="154" y="8" width="2" height="24" rx="1" fill="white"/>
<rect x="106" y="8" width="2" height="24" rx="1" fill="white"/>
<rect x="184" y="8" width="2" height="24" rx="1" fill="white"/>
<rect width="2" height="24" rx="1" transform="matrix(-1 0 0 1 126 8)" fill="white"/>
<rect width="2" height="24" rx="1" transform="matrix(-1 0 0 1 204 8)" fill="white"/>
<rect x="238" y="8" width="2" height="24" rx="1" fill="white"/>
<rect width="2" height="24" rx="1" transform="matrix(-1 0 0 1 258 8)" fill="white"/>
</g>
<defs>
<clipPath id="clip0_3_2505">
<rect width="271" height="40" fill="white"/>
</clipPath>
</defs>
</svg>
