<svg width="22" height="22" viewBox="0 0 22 22" fill="none" xmlns="http://www.w3.org/2000/svg">
<path fill-rule="evenodd" clip-rule="evenodd" d="M14.529 2.29214C15.1074 2.29214 15.6849 2.37372 16.234 2.55797C19.6174 3.65797 20.8366 7.37047 19.8181 10.6155C19.2406 12.2737 18.2965 13.7871 17.0599 15.0237C15.2898 16.7379 13.3474 18.2596 11.2565 19.5704L11.0273 19.7088L10.789 19.5612C8.69073 18.2596 6.73731 16.7379 4.95073 15.0146C3.72239 13.778 2.77731 12.2737 2.19065 10.6155C1.15481 7.37047 2.37398 3.65797 5.79406 2.53872C6.0599 2.44706 6.33398 2.38289 6.60898 2.34714H6.71898C6.97656 2.30956 7.23231 2.29214 7.48898 2.29214H7.58981C8.16731 2.30956 8.72648 2.41039 9.26823 2.59464H9.32231C9.35898 2.61206 9.38648 2.63131 9.40481 2.64872C9.60739 2.71381 9.79898 2.78714 9.98231 2.88797L10.3306 3.04381C10.4148 3.0887 10.5093 3.15729 10.5909 3.21657C10.6427 3.25413 10.6893 3.28795 10.7248 3.30964C10.7398 3.31846 10.755 3.32734 10.7703 3.33628C10.8489 3.38217 10.9308 3.42996 10.9998 3.48289C12.0182 2.70464 13.2548 2.28297 14.529 2.29214ZM16.9673 8.89214C17.3431 8.88206 17.664 8.58047 17.6915 8.19455V8.08547C17.719 6.80122 16.9407 5.63797 15.7573 5.1888C15.3815 5.05956 14.969 5.26214 14.8315 5.64714C14.7031 6.03214 14.9048 6.4538 15.2898 6.59039C15.8774 6.81039 16.2706 7.3888 16.2706 8.02956V8.05797C16.2532 8.26789 16.3165 8.47047 16.4448 8.62631C16.5731 8.78214 16.7656 8.87289 16.9673 8.89214Z" fill="#FA6969"/>
</svg>
