<svg width="16" height="16" viewBox="0 0 16 16" fill="none" xmlns="http://www.w3.org/2000/svg">
<g clip-path="url(#clip0_3_2863)">
<path d="M3.20179 8.06791L5.21888 10.085L3.13307 12.1708C2.57119 12.7327 2.28015 13.5977 2.39333 13.7109C2.50652 13.8241 3.37156 13.533 3.93344 12.9712L6.01924 10.8854L8.03633 12.9025C8.3395 13.2056 8.78011 13.2177 9.08328 12.9146C9.26518 12.7327 9.35007 12.5265 9.3622 12.2476L9.46729 9.67673C9.47538 9.52312 9.49155 9.41802 9.65324 9.28867L11.2176 8.08812C11.3187 8.01132 11.3793 7.97493 11.5046 8.00323L13.2104 8.28619C13.6591 8.36299 13.9785 8.23768 14.1887 8.02748C14.4959 7.72027 14.5322 7.21499 14.1725 6.85523L9.24497 1.92771C8.88925 1.57199 8.37993 1.60433 8.07271 1.91154C7.86252 2.12174 7.73721 2.44108 7.81401 2.88977L8.09697 4.5956C8.12526 4.72091 8.08888 4.78155 8.01208 4.8826L6.81153 6.44696C6.68622 6.61269 6.58112 6.62886 6.42347 6.6329L3.85259 6.738C3.57367 6.75013 3.36752 6.83502 3.18562 7.01692C2.88245 7.32009 2.89457 7.76069 3.20179 8.06791Z" fill="#CCC7D1"/>
</g>
<defs>
<clipPath id="clip0_3_2863">
<rect width="16" height="16" fill="white"/>
</clipPath>
</defs>
</svg>
