<svg width="22" height="22" viewBox="0 0 22 22" fill="none" xmlns="http://www.w3.org/2000/svg">
<path fill-rule="evenodd" clip-rule="evenodd" d="M18.7185 2.99828C19.0484 2.66838 19.5744 2.66643 19.9169 2.99731C20.2498 3.33012 20.2498 3.86766 19.9179 4.1995L4.19822 19.9183C4.04198 20.0745 3.81685 20.1667 3.59753 20.1667C3.38307 20.1667 3.17152 20.0793 3.00073 19.9212C2.66691 19.5748 2.66691 19.0479 2.99782 18.717L5.58881 16.1264H5.56261C4.271 16.1264 3.33067 15.2143 3.156 13.7977C2.96094 12.381 2.99976 9.95529 3.156 8.6648C3.3394 7.32579 4.33019 6.40498 5.56261 6.40498H7.24045L10.4428 3.78518C10.8319 3.45528 11.5209 3.14382 12.0537 3.13509C13.0241 3.13509 13.9169 3.81332 14.2371 4.90005C14.3633 5.35706 14.4127 5.81213 14.4516 6.24973L14.5282 6.86975C14.5408 6.96484 14.5525 7.05605 14.5622 7.15308L18.7185 2.99828ZM13.6408 12.5871C13.7718 12.459 14.0649 12.3669 14.1968 12.4008C14.553 12.4911 14.6228 13.0024 14.617 13.4041C14.6005 14.5704 14.5617 15.3816 14.4996 15.8832L14.4559 16.2965L14.4552 16.3042C14.4137 16.72 14.3707 17.1503 14.2473 17.6094C13.9241 18.6941 13.0576 19.3986 12.0726 19.3986C12.0406 19.3986 12.0086 19.3986 11.9756 19.3976C11.4312 19.3976 10.8412 19.0716 10.5064 18.7873L9.31373 17.8645C8.86055 17.5279 8.99446 16.9903 9.24871 16.6788C9.43857 16.447 11.7205 14.3522 12.919 13.2519C13.3255 12.8788 13.6074 12.62 13.6408 12.5871Z" fill="#8667F2"/>
</svg>
