<svg width="24" height="24" viewBox="0 0 24 24" fill="none" xmlns="http://www.w3.org/2000/svg">
<path fill-rule="evenodd" clip-rule="evenodd" d="M12 18.7285C17.2454 18.7285 21.4977 14.9984 21.4977 10.397C21.4977 5.79559 17.2454 2.06543 12 2.06543C6.75458 2.06543 2.50232 5.79559 2.50232 10.397C2.50232 17.9884 8.83411 21.2517 12 21.9344V18.7285ZM14.4052 10.4669C14.4052 9.43722 15.0944 8.56007 16.0596 8.22687C15.2164 7.09909 13.755 6.35335 12.0934 6.35335C9.48223 6.35335 7.36545 8.19504 7.36545 10.4669C7.36545 12.7387 9.48223 14.5804 12.0934 14.5804C13.755 14.5804 15.2164 13.8346 16.0596 12.7069C15.0944 12.3737 14.4052 11.4965 14.4052 10.4669Z" fill="#8667F2"/>
</svg>
