<svg width="14" height="14" viewBox="0 0 14 14" fill="none" xmlns="http://www.w3.org/2000/svg">
<path fill-rule="evenodd" clip-rule="evenodd" d="M4.72354 7.00016C4.72354 8.24461 5.74224 9.25713 6.99996 9.25713C8.25199 9.25713 9.27069 8.24461 9.27069 7.00016C9.27069 5.75006 8.25199 4.73754 6.99996 4.73754C5.74224 4.73754 4.72354 5.75006 4.72354 7.00016ZM10.3463 3.52703C11.3422 4.29632 12.1902 5.42198 12.7991 6.83046C12.8447 6.93794 12.8447 7.06238 12.7991 7.1642C11.5813 9.98117 9.41297 11.6668 6.99996 11.6668H6.99427C4.58695 11.6668 2.41866 9.98117 1.20077 7.1642C1.15524 7.06238 1.15524 6.93794 1.20077 6.83046C2.41866 4.0135 4.58695 2.3335 6.99427 2.3335H6.99996C8.20646 2.3335 9.35037 2.75208 10.3463 3.52703ZM7.00064 8.4074C7.78032 8.4074 8.41772 7.77387 8.41772 6.99892C8.41772 6.21831 7.78032 5.58478 7.00064 5.58478C6.93235 5.58478 6.86406 5.59043 6.80146 5.60175C6.77869 6.22397 6.2665 6.72175 5.63479 6.72175H5.60633C5.58926 6.81225 5.57788 6.90276 5.57788 6.99892C5.57788 7.77387 6.21528 8.4074 7.00064 8.4074Z" fill="#8C8198"/>
</svg>
